<svg width="66" height="66" viewBox="0 0 66 66" fill="none" xmlns="http://www.w3.org/2000/svg">
<path d="M26.5 39.5L33 33L26.5 39.5ZM33 33L39.5 26.5L33 33ZM33 33L26.5 26.5L33 33ZM33 33L39.5 39.5L33 33ZM62.25 33C62.25 36.8412 61.4934 40.6447 60.0235 44.1935C58.5535 47.7423 56.399 50.9668 53.6829 53.6829C50.9668 56.399 47.7423 58.5535 44.1935 60.0235C40.6447 61.4934 36.8412 62.25 33 62.25C29.1588 62.25 25.3553 61.4934 21.8065 60.0235C18.2577 58.5535 15.0332 56.399 12.3171 53.6829C9.60101 50.9668 7.44647 47.7423 5.97652 44.1935C4.50657 40.6447 3.75 36.8412 3.75 33C3.75 25.2424 6.83169 17.8026 12.3171 12.3171C17.8026 6.83169 25.2424 3.75 33 3.75C40.7576 3.75 48.1974 6.83169 53.6829 12.3171C59.1683 17.8026 62.25 25.2424 62.25 33Z" stroke="#F89A9A" stroke-width="6.5" stroke-linecap="round" stroke-linejoin="round"/>
</svg>
