<svg width="13" height="15" viewBox="0 0 13 15" fill="none" xmlns="http://www.w3.org/2000/svg">
<path d="M6.50004 9.625V11.0417V9.625ZM2.25004 13.875H10.75C11.1258 13.875 11.4861 13.7257 11.7518 13.4601C12.0175 13.1944 12.1667 12.8341 12.1667 12.4583V8.20833C12.1667 7.83261 12.0175 7.47228 11.7518 7.2066C11.4861 6.94092 11.1258 6.79167 10.75 6.79167H2.25004C1.87432 6.79167 1.51398 6.94092 1.24831 7.2066C0.982629 7.47228 0.833374 7.83261 0.833374 8.20833V12.4583C0.833374 12.8341 0.982629 13.1944 1.24831 13.4601C1.51398 13.7257 1.87432 13.875 2.25004 13.875ZM9.33337 6.79167V3.95833C9.33337 3.20689 9.03486 2.48622 8.50351 1.95486C7.97216 1.42351 7.25149 1.125 6.50004 1.125C5.74859 1.125 5.02792 1.42351 4.49657 1.95486C3.96522 2.48622 3.66671 3.20689 3.66671 3.95833V6.79167H9.33337Z" stroke="#00113D" stroke-width="1.41667" stroke-linecap="round" stroke-linejoin="round"/>
</svg>
